<?xml version="1.0" encoding="UTF-8"?>
<svg width="24px" height="30px" viewBox="0 0 24 30" version="1.1" xmlns="http://www.w3.org/2000/svg" xmlns:xlink="http://www.w3.org/1999/xlink">
    <!-- Generator: Sketch 48.2 (47327) - http://www.bohemiancoding.com/sketch -->
    <title>marker</title>
    <desc>Created with Sketch.</desc>
    <defs></defs>
    <g id="references" stroke="none" stroke-width="1" fill="none" fill-rule="evenodd" transform="translate(-506.000000, -1505.000000)">
        <g id="gmap" transform="translate(-3.000000, 841.000000)" fill="#3671BD">
            <g id="marker" transform="translate(79.000000, 165.000000)">
                <path d="M430,510.684046 C430,504.246611 435.241397,499.005214 441.683525,499 C448.126694,499.005214 453.368092,504.246611 453.368092,510.684046 C453.368092,516.992179 442.523462,528.14755 442.062044,528.619395 L441.68926,529 L441.316475,528.619917 C440.854536,528.14755 430,516.992179 430,510.684046 Z M442,516 C445.313708,516 448,513.313708 448,510 C448,506.686292 445.313708,504 442,504 C438.686292,504 436,506.686292 436,510 C436,513.313708 438.686292,516 442,516 Z"></path>
            </g>
        </g>
    </g>
</svg>